<svg width="117" height="75" viewBox="0 0 117 75" fill="none" xmlns="http://www.w3.org/2000/svg">
<path d="M26.944 0.679998V28.584H23.104V0.679998H26.944ZM21.184 0.999998V26.984H17.344V11.432H14.336V7.592H17.344V0.999998H21.184ZM11.072 25.256C11.5627 24.4667 12.0213 23.4747 12.448 22.28C12.8747 21.064 13.088 19.944 13.088 18.92C13.088 17.896 12.8533 17.1067 12.384 16.552C12.1707 18.6427 11.5947 20.3387 10.656 21.64C9.71733 22.92 8.32 23.6347 6.464 23.784C5.46133 23.848 4.58667 23.656 3.84 23.208C3.11467 22.76 2.56 22.1413 2.176 21.352C1.792 20.5627 1.6 19.6987 1.6 18.76C1.6 17.7573 1.81333 16.7973 2.24 15.88C2.688 14.9413 3.34933 14.1307 4.224 13.448C5.12 12.7653 6.21867 12.3173 7.52 12.104L8.672 11.944V1.512H12.512V12.2C14.0267 12.6267 15.1147 13.4373 15.776 14.632C16.4373 15.8053 16.768 17.2027 16.768 18.824C16.768 19.9547 16.6293 21.096 16.352 22.248C16.096 23.4 15.776 24.4027 15.392 25.256H11.072ZM6.144 20.264C6.912 20.2 7.49867 19.7733 7.904 18.984C8.30933 18.1947 8.55467 17.032 8.64 15.496L8.16 15.56C7.24267 15.7093 6.54933 16.1253 6.08 16.808C5.632 17.4693 5.408 18.1733 5.408 18.92C5.408 19.304 5.472 19.6347 5.6 19.912C5.74933 20.168 5.93067 20.2853 6.144 20.264ZM32.1405 21.416H48.1405C48.9298 21.416 49.3245 21.2987 49.3245 21.064C49.3245 20.9147 49.1218 20.776 48.7165 20.648C47.5218 20.3067 45.4845 20.136 42.6045 20.136C39.1272 20.136 36.0872 20.424 33.4845 21L32.6525 17.544C34.8712 17.0533 37.5378 16.7547 40.6525 16.648V15.752H29.5805V12.552H55.5645V15.752H44.4925V16.648C46.9032 16.7547 48.7058 16.9787 49.9005 17.32C50.9458 17.6613 51.7458 18.1733 52.3005 18.856C52.8552 19.5387 53.1325 20.2747 53.1325 21.064C53.1325 21.7253 52.9405 22.3547 52.5565 22.952C52.1725 23.5493 51.5965 24.0293 50.8285 24.392C50.0818 24.7547 49.1858 24.936 48.1405 24.936H37.3245C37.2178 25.0427 37.1645 25.16 37.1645 25.288C37.1645 25.544 37.4098 25.768 37.9005 25.96C38.7112 26.28 40.0125 26.44 41.8045 26.44C43.7245 26.44 45.8792 26.2693 48.2685 25.928C50.6578 25.5867 52.8018 25.128 54.7005 24.552L55.7885 27.944C53.7832 28.5413 51.5112 29.0213 48.9725 29.384C46.4552 29.768 44.1192 29.96 41.9645 29.96C39.4685 29.96 37.6232 29.7147 36.4285 29.224C35.2765 28.7547 34.4445 28.136 33.9325 27.368C33.4418 26.6 33.2498 25.7893 33.3565 24.936H32.1405V21.416ZM32.3645 0.455999H53.2285C52.3325 2.376 51.3298 4.02933 50.2205 5.416C51.8418 6.248 52.6525 7.38933 52.6525 8.84C52.6525 9.71467 52.3538 10.6107 51.7565 11.528H46.9565C47.9378 10.5467 48.4285 9.74667 48.4285 9.128C48.4285 8.68 48.1725 8.30667 47.6605 8.008C45.1005 10.1413 42.0285 11.3467 38.4445 11.624C37.9325 11.6667 37.5698 11.688 37.3565 11.688C36.2258 11.688 35.2232 11.5387 34.3485 11.24C33.4952 10.9413 32.8338 10.536 32.3645 10.024C31.8952 9.512 31.6605 8.968 31.6605 8.392C31.6605 7.79467 31.9378 7.21867 32.4925 6.664C33.0472 6.088 33.9005 5.59733 35.0525 5.192C36.2258 4.76533 37.6765 4.47733 39.4045 4.328C40.4925 4.22133 41.6765 4.168 42.9565 4.168C44.2792 4.168 45.4312 4.232 46.4125 4.36L47.0205 3.656H32.3645V0.455999ZM38.1245 8.424C39.7032 8.296 41.1325 7.944 42.4125 7.368C41.2392 7.41067 40.3432 7.464 39.7245 7.528C38.2738 7.63467 37.1645 7.76267 36.3965 7.912C35.6285 8.06133 35.2445 8.2 35.2445 8.328C35.2445 8.37067 35.3512 8.41333 35.5645 8.456C35.7778 8.49867 36.0765 8.52 36.4605 8.52C36.9085 8.52 37.4632 8.488 38.1245 8.424ZM69.918 23.88C69.918 24.4133 70.174 24.872 70.686 25.256C71.198 25.64 71.966 25.9173 72.99 26.088C74.398 26.28 75.5713 26.376 76.51 26.376C77.4913 26.376 78.6647 26.28 80.03 26.088C81.054 25.9173 81.822 25.64 82.334 25.256C82.846 24.872 83.102 24.4133 83.102 23.88V23.624C83.102 23.0267 82.846 22.5253 82.334 22.12C81.8433 21.6933 81.182 21.48 80.35 21.48H72.67C71.838 21.48 71.166 21.6933 70.654 22.12C70.1633 22.5253 69.918 23.0267 69.918 23.624V23.88ZM66.078 23.624C66.078 22.6 66.3553 21.6613 66.91 20.808C67.486 19.9333 68.2753 19.24 69.278 18.728C70.2807 18.216 71.4113 17.96 72.67 17.96H80.35C81.6087 17.96 82.7393 18.216 83.742 18.728C84.7447 19.24 85.5233 19.9333 86.078 20.808C86.654 21.6613 86.942 22.6 86.942 23.624V23.88C86.942 25.3947 86.3553 26.6427 85.182 27.624C84.0087 28.6267 82.5047 29.2667 80.67 29.544C79.1767 29.7573 77.79 29.864 76.51 29.864C75.2513 29.864 73.8647 29.7573 72.35 29.544C70.5153 29.2667 69.0113 28.6267 67.838 27.624C66.6647 26.6427 66.078 25.3947 66.078 23.88V23.624ZM86.494 0.679998V17.384H82.654V13.832H78.238V10.312C77.3207 12.2107 75.71 13.736 73.406 14.888C71.1233 16.04 67.9873 16.8507 63.998 17.32L63.55 13.8C66.494 13.4587 68.8193 12.9573 70.526 12.296C72.2327 11.6133 73.4487 10.76 74.174 9.736C74.9207 8.712 75.326 7.432 75.39 5.896C75.3687 5.53333 75.3047 5.29867 75.198 5.192C75.1127 5.08533 74.91 5.032 74.59 5.032H64.638V1.512H74.59C75.5287 1.512 76.3713 1.71467 77.118 2.12C77.8647 2.52533 78.4193 3.12267 78.782 3.912H82.654V0.679998H86.494ZM82.654 9.992V7.752H79.038C78.91 8.49867 78.6967 9.24533 78.398 9.992H82.654ZM116.569 0.679998V28.584H112.729V0.679998H116.569ZM110.809 0.999998V26.984H106.969V13.992H104.665V10.152H106.969V0.999998H110.809ZM93.081 1.512H104.921C104.857 1.68267 104.793 2.248 104.729 3.208C104.537 5.02133 104.334 6.696 104.121 8.232C103.908 9.768 103.609 11.3573 103.225 13C104.825 14.152 105.625 16.104 105.625 18.856C105.625 19.9653 105.497 21.096 105.241 22.248C104.985 23.3787 104.676 24.3813 104.313 25.256H100.057C100.526 24.4453 100.953 23.432 101.337 22.216C101.742 21 101.945 19.88 101.945 18.856C101.945 18.3653 101.902 17.9493 101.817 17.608C100.132 21.7467 97.9343 23.816 95.225 23.816C93.945 23.816 92.9423 23.336 92.217 22.376C91.4917 21.416 91.129 20.2427 91.129 18.856C91.129 17.8533 91.3317 16.8827 91.737 15.944C92.1637 14.984 92.8037 14.1627 93.657 13.48C94.5103 12.776 95.5557 12.3173 96.793 12.104C97.881 11.9333 98.7663 11.8587 99.449 11.88C99.961 9.53333 100.356 7.25067 100.633 5.032H93.081V1.512ZM95.353 20.296C96.441 20.1253 97.4863 18.504 98.489 15.432L97.433 15.56C96.5583 15.7093 95.9183 16.1253 95.513 16.808C95.129 17.4907 94.937 18.216 94.937 18.984C94.937 19.368 94.9797 19.688 95.065 19.944C95.1503 20.2 95.2463 20.3173 95.353 20.296ZM23.744 45.68V57.712H26.816V61.552H23.744V73.584H19.904V45.68H23.744ZM1.888 46.512H11.84C13.12 46.512 14.1973 46.8853 15.072 47.632C15.9467 48.3787 16.4267 49.4453 16.512 50.832C16.576 54.5013 16.1387 57.616 15.2 60.176C14.2827 62.736 12.704 64.848 10.464 66.512C8.224 68.176 5.19467 69.3813 1.376 70.128L0.672 66.672C3.95733 66.032 6.48533 65.008 8.256 63.6C10.048 62.192 11.2853 60.2827 11.968 57.872C10.4747 58.3413 8.91733 58.6827 7.296 58.896C5.696 59.1093 3.86133 59.28 1.792 59.408L1.6 55.888C4.01067 55.76 6.05867 55.5573 7.744 55.28C9.42933 55.0027 11.0507 54.512 12.608 53.808C12.6507 53.2107 12.672 52.2613 12.672 50.96C12.6507 50.576 12.576 50.3307 12.448 50.224C12.3413 50.096 12.1387 50.032 11.84 50.032H1.888V46.512ZM51.5953 60.784C50.1873 61.424 48.5659 61.936 46.7313 62.32C44.8966 62.6827 43.1046 62.864 41.3553 62.864C39.3286 62.864 37.5473 62.5867 36.0113 62.032C34.4753 61.4773 33.3766 60.624 32.7153 59.472C31.8833 57.9573 31.4673 56.1973 31.4673 54.192C31.4673 53.2107 31.5739 51.92 31.7873 50.32H30.3473V46.8H51.5953V50.32H35.6913C35.4353 51.9413 35.3073 53.2853 35.3073 54.352C35.3073 55.7173 35.5526 56.848 36.0433 57.744C36.3419 58.256 36.9499 58.6507 37.8673 58.928C38.7846 59.184 39.8939 59.312 41.1953 59.312C43.0299 59.312 44.9179 59.0773 46.8593 58.608C48.8006 58.1387 50.3793 57.5093 51.5953 56.72V60.784ZM54.2833 71.632H28.2993V68.112H54.2833V71.632ZM79.2865 57.776C77.6438 58.3093 75.8945 58.736 74.0385 59.056C72.2038 59.3547 70.4332 59.504 68.7265 59.504C66.6145 59.504 64.7692 59.2587 63.1905 58.768C61.6332 58.2773 60.5132 57.5093 59.8305 56.464C59.2758 55.6533 58.8812 54.704 58.6465 53.616C58.4332 52.528 58.3265 51.2907 58.3265 49.904C58.3265 48.7733 58.4012 47.3333 58.5505 45.584L62.3905 45.904C62.2625 47.376 62.1985 48.7093 62.1985 49.904C62.1985 52.144 62.4758 53.6693 63.0305 54.48C63.3505 54.9707 64.0012 55.344 64.9825 55.6C65.9852 55.8347 67.2012 55.952 68.6305 55.952C70.3372 55.952 72.1398 55.792 74.0385 55.472C75.9372 55.1307 77.6865 54.64 79.2865 54V57.776ZM81.8145 65.552H76.5025V74.544H72.6625V65.552H66.7425C66.4225 67.92 65.6652 69.84 64.4705 71.312C63.2758 72.784 61.7292 73.9787 59.8305 74.896L58.1665 71.696C59.4465 71.0773 60.4812 70.2987 61.2705 69.36C62.0598 68.4 62.5932 67.1307 62.8705 65.552H55.8305V62.032H81.8145V65.552ZM100.77 63.088C100.983 62.96 101.26 62.608 101.602 62.032C101.964 61.4347 102.274 60.7413 102.53 59.952C102.807 59.1627 102.946 58.384 102.946 57.616C102.946 56.6987 102.7 55.888 102.21 55.184C101.74 54.48 100.962 53.968 99.8738 53.648C99.4684 55.9947 98.6471 57.9573 97.4098 59.536C96.1724 61.0933 94.3698 62.032 92.0017 62.352C91.6178 62.416 91.2551 62.448 90.9138 62.448C89.8471 62.448 88.9298 62.2133 88.1618 61.744C87.3938 61.2747 86.8071 60.656 86.4018 59.888C85.9964 59.12 85.7938 58.2773 85.7938 57.36C85.7938 56.272 86.0818 55.2053 86.6578 54.16C87.2551 53.0933 88.1404 52.1867 89.3138 51.44C90.5084 50.672 91.9698 50.1707 93.6978 49.936C94.5511 49.8293 95.4364 49.7547 96.3538 49.712L96.5458 46.288H100.386L100.194 50C102.455 50.448 104.087 51.3547 105.09 52.72C106.114 54.0853 106.626 55.696 106.626 57.552C106.626 58.512 106.508 59.472 106.274 60.432C106.039 61.392 105.719 62.2773 105.314 63.088H100.77ZM109.346 71.632H83.3618V68.112H109.346V71.632ZM91.4898 58.896C93.9431 58.5547 95.4684 56.688 96.0658 53.296C95.2551 53.3387 94.6364 53.392 94.2098 53.456C93.2071 53.584 92.3538 53.8613 91.6498 54.288C90.9671 54.6933 90.4444 55.1733 90.0818 55.728C89.7404 56.2827 89.5698 56.816 89.5698 57.328C89.5698 57.8613 89.7404 58.2773 90.0818 58.576C90.4231 58.8747 90.8924 58.9813 91.4898 58.896Z" fill="#292929"/>
</svg>
