<svg width="400" height="52" viewBox="0 0 400 52" fill="none" xmlns="http://www.w3.org/2000/svg">
<rect width="400" height="52" rx="8" fill="#FEE500"/>
<path d="M144.857 16C138.86 16 134 19.8412 134 24.5822C134 27.6666 136.059 30.3726 139.15 31.884C138.924 32.731 138.327 34.9552 138.209 35.4304C138.061 36.02 138.424 36.0134 138.662 35.855C138.849 35.7296 141.636 33.8332 142.84 33.017C143.493 33.1138 144.166 33.1644 144.855 33.1644C150.85 33.1644 155.712 29.3232 155.712 24.5822C155.712 19.8412 150.852 16 144.857 16Z" fill="#371D1E"/>
<path d="M175.102 20.5781C175.086 24.9688 174.023 28.6172 168.711 31.2812L167.617 29.7812C169.992 28.6016 171.406 27.2812 172.211 25.7031L168.008 26.0938L167.758 24.3906L172.812 24.0859C172.961 23.4844 173.062 22.8438 173.109 22.1719H168.508V20.5781H175.102ZM176.898 33.4062V19.2188H178.898V24.6719H180.914V26.3125H178.898V33.4062H176.898ZM188.93 20.5781C188.914 24.9688 187.852 28.6172 182.539 31.2812L181.445 29.7812C183.82 28.6016 185.234 27.2812 186.039 25.7031L181.836 26.0938L181.586 24.3906L186.641 24.0859C186.789 23.4844 186.891 22.8438 186.938 22.1719H182.336V20.5781H188.93ZM190.727 33.4062V19.2188H192.727V24.6719H194.742V26.3125H192.727V33.4062H190.727ZM201.82 19.9531C204.875 19.9531 207.172 21.5 207.18 23.8438C207.172 25.9922 205.359 27.4297 202.805 27.7109V30.1406H208.352V31.7812H195.336V30.1406H200.82V27.7109C198.281 27.4219 196.477 25.9844 196.477 23.8438C196.477 21.5 198.766 19.9531 201.82 19.9531ZM198.445 23.8438C198.445 25.3438 199.828 26.1797 201.82 26.1875C203.82 26.1797 205.203 25.3438 205.211 23.8438C205.203 22.4219 203.82 21.5391 201.82 21.5469C199.828 21.5391 198.445 22.4219 198.445 23.8438ZM222.18 30.2188V31.8594H209.164V30.2188H214.648V28.0781H210.664V23.2969H218.711V21.7344H210.648V20.1406H220.68V24.8594H212.664V26.4531H221.008V28.0781H216.633V30.2188H222.18ZM239.695 30.2188V31.8594H226.68V30.2188H232.164V28.0781H228.18V23.2969H236.227V21.7344H228.164V20.1406H238.195V24.8594H230.18V26.4531H238.523V28.0781H234.148V30.2188H239.695ZM251.883 20.5312V22.2344C251.875 24.1875 251.875 26.1172 251.367 29.0625L249.352 28.8906C249.891 26.1562 249.891 24.125 249.898 22.2344V22.125H241.852V20.5312H251.883ZM240.508 31.5781V29.9375H253.477V31.5781H240.508ZM266.242 19.2344V29.4531H264.242V19.2344H266.242ZM254.555 23.7188C254.555 21.6328 256.258 20.1328 258.445 20.1406C260.625 20.1328 262.328 21.6328 262.336 23.7188C262.328 25.8359 260.625 27.3281 258.445 27.3281C256.258 27.3281 254.555 25.8359 254.555 23.7188ZM256.508 23.7188C256.492 24.9062 257.328 25.5938 258.445 25.5938C259.523 25.5938 260.359 24.9062 260.367 23.7188C260.359 22.5625 259.523 21.8672 258.445 21.875C257.328 21.8672 256.492 22.5625 256.508 23.7188ZM256.711 33.1875V28.4219H258.727V31.5938H266.617V33.1875H256.711Z" fill="#333333"/>
</svg>
