<svg width="94" height="26" viewBox="0 0 94 26" fill="none" xmlns="http://www.w3.org/2000/svg">
<path d="M14.612 15.24C15.028 14.5987 15.3747 13.914 15.652 13.186C15.9467 12.458 16.094 11.7733 16.094 11.132C16.094 10.0573 15.6693 9.26 14.82 8.74C14.1267 10.3693 13.182 11.7387 11.986 12.848C10.79 13.94 9.308 14.5987 7.54 14.824C7.332 14.8587 7.046 14.876 6.682 14.876C5.83267 14.876 5.096 14.7027 4.472 14.356C3.848 13.992 3.37133 13.5153 3.042 12.926C2.73 12.3367 2.574 11.6867 2.574 10.976C2.574 10.144 2.808 9.32933 3.276 8.532C3.744 7.71733 4.45467 7.024 5.408 6.452C6.36133 5.88 7.53133 5.50733 8.918 5.334C9.81933 5.21267 10.686 5.152 11.518 5.152C11.83 5.152 12.2287 5.16933 12.714 5.204L13.364 2.734H16.588L15.756 5.828C16.9693 6.31333 17.8447 7.024 18.382 7.96C18.9367 8.87867 19.214 9.91 19.214 11.054C19.214 11.782 19.1187 12.51 18.928 13.238C18.7373 13.9487 18.486 14.616 18.174 15.24H14.612ZM21.736 23.326H0.624V20.466H6.24V16.046H9.36V20.466H13V16.046H16.12V20.466H21.736V23.326ZM7.124 11.964C8.164 11.8427 9.06533 11.4353 9.828 10.742C10.608 10.0487 11.258 9.14733 11.778 8.038C10.8593 8.038 10.0273 8.09 9.282 8.194C8.502 8.28067 7.83467 8.48 7.28 8.792C6.72533 9.08667 6.30933 9.43333 6.032 9.832C5.772 10.2133 5.642 10.586 5.642 10.95C5.642 11.262 5.73733 11.5133 5.928 11.704C6.136 11.8947 6.422 11.99 6.786 11.99C6.92467 11.99 7.03733 11.9813 7.124 11.964ZM25.2551 4.008H32.6131C32.4918 3.488 32.4138 3.00267 32.3791 2.552C32.3618 2.084 32.3531 1.49467 32.3531 0.783999H35.4731C35.4731 1.49467 35.4905 2.11867 35.5251 2.656C35.5771 3.176 35.6811 3.62667 35.8371 4.008H41.9471C41.2365 6.10533 40.4045 7.94267 39.4511 9.52C40.2311 9.988 40.8031 10.56 41.1671 11.236C41.5485 11.912 41.7391 12.64 41.7391 13.42C41.7391 14.4253 41.4618 15.4307 40.9071 16.436H37.3451C37.6745 15.968 37.9518 15.474 38.1771 14.954C38.4025 14.434 38.5151 13.9487 38.5151 13.498C38.5151 12.822 38.2638 12.2847 37.7611 11.886C35.6985 14.2607 33.1938 15.63 30.2471 15.994C29.7965 16.0287 29.4758 16.046 29.2851 16.046C28.3665 16.046 27.5518 15.8987 26.8411 15.604C26.1478 15.292 25.6105 14.8847 25.2291 14.382C24.8651 13.862 24.6831 13.316 24.6831 12.744C24.6831 12.12 24.8998 11.522 25.3331 10.95C25.7838 10.378 26.4771 9.884 27.4131 9.468C28.3491 9.03467 29.5191 8.74 30.9231 8.584C31.9458 8.44533 32.9858 8.376 34.0431 8.376C35.0311 8.376 35.8631 8.43667 36.5391 8.558C36.9378 7.89933 37.2931 7.24933 37.6051 6.608H25.2551V4.008ZM44.1051 23.326H22.9931V20.466H44.1051V23.326ZM29.8831 13.394C31.7031 13.186 33.2891 12.3887 34.6411 11.002L33.9391 10.976C33.2458 10.976 32.3618 11.0453 31.2871 11.184C30.1778 11.3053 29.3111 11.522 28.6871 11.834C28.0805 12.146 27.7771 12.458 27.7771 12.77C27.7771 12.9607 27.9071 13.1167 28.1671 13.238C28.4271 13.3593 28.7911 13.42 29.2591 13.42C29.5191 13.42 29.7271 13.4113 29.8831 13.394ZM55.7674 21.09C55.7674 21.5233 55.9754 21.896 56.3914 22.208C56.8074 22.52 57.4314 22.7453 58.2634 22.884C59.4074 23.04 60.3607 23.118 61.1234 23.118C61.9207 23.118 62.874 23.04 63.9834 22.884C64.8154 22.7453 65.4394 22.52 65.8554 22.208C66.2714 21.896 66.4794 21.5233 66.4794 21.09V20.882C66.4794 20.3967 66.2714 19.9893 65.8554 19.66C65.4567 19.3133 64.9194 19.14 64.2434 19.14H58.0034C57.3274 19.14 56.7814 19.3133 56.3654 19.66C55.9667 19.9893 55.7674 20.3967 55.7674 20.882V21.09ZM52.6474 20.882C52.6474 20.05 52.8727 19.2873 53.3234 18.594C53.7914 17.8833 54.4327 17.32 55.2474 16.904C56.062 16.488 56.9807 16.28 58.0034 16.28H64.2434C65.266 16.28 66.1847 16.488 66.9994 16.904C67.814 17.32 68.4467 17.8833 68.8974 18.594C69.3654 19.2873 69.5994 20.05 69.5994 20.882V21.09C69.5994 22.3207 69.1227 23.3347 68.1694 24.132C67.216 24.9467 65.994 25.4667 64.5034 25.692C63.29 25.8653 62.1634 25.952 61.1234 25.952C60.1007 25.952 58.974 25.8653 57.7434 25.692C56.2527 25.4667 55.0307 24.9467 54.0774 24.132C53.124 23.3347 52.6474 22.3207 52.6474 21.09V20.882ZM69.2354 2.24V15.812H66.1154V12.926H62.5274V10.066C61.782 11.6087 60.4734 12.848 58.6014 13.784C56.7467 14.72 54.1987 15.3787 50.9574 15.76L50.5934 12.9C52.9854 12.6227 54.8747 12.2153 56.2614 11.678C57.648 11.1233 58.636 10.43 59.2254 9.598C59.832 8.766 60.1614 7.726 60.2134 6.478C60.196 6.18333 60.144 5.99267 60.0574 5.906C59.988 5.81933 59.8234 5.776 59.5634 5.776H51.4774V2.916H59.5634C60.326 2.916 61.0107 3.08067 61.6174 3.41C62.224 3.73933 62.6747 4.22467 62.9694 4.866H66.1154V2.24H69.2354ZM66.1154 9.806V7.986H63.1774C63.0734 8.59267 62.9 9.19933 62.6574 9.806H66.1154ZM93.6713 2.24V24.912H90.5513V2.24H93.6713ZM88.9913 2.5V23.612H85.8713V13.056H83.9993V9.936H85.8713V2.5H88.9913ZM74.5873 2.916H84.2073C84.1553 3.05467 84.1033 3.514 84.0513 4.294C83.8953 5.76733 83.7306 7.128 83.5573 8.376C83.384 9.624 83.1413 10.9153 82.8293 12.25C84.1293 13.186 84.7793 14.772 84.7793 17.008C84.7793 17.9093 84.6753 18.828 84.4673 19.764C84.2593 20.6827 84.008 21.4973 83.7133 22.208H80.2553C80.6366 21.5493 80.9833 20.726 81.2953 19.738C81.6246 18.75 81.7893 17.84 81.7893 17.008C81.7893 16.6093 81.7546 16.2713 81.6853 15.994C80.316 19.3567 78.5306 21.038 76.3293 21.038C75.2893 21.038 74.4746 20.648 73.8853 19.868C73.296 19.088 73.0013 18.1347 73.0013 17.008C73.0013 16.1933 73.166 15.4047 73.4953 14.642C73.842 13.862 74.362 13.1947 75.0553 12.64C75.7486 12.068 76.598 11.6953 77.6033 11.522C78.4873 11.3833 79.2066 11.3227 79.7613 11.34C80.1773 9.43333 80.498 7.57867 80.7233 5.776H74.5873V2.916ZM76.4333 18.178C77.3173 18.0393 78.1666 16.722 78.9813 14.226L78.1233 14.33C77.4126 14.4513 76.8926 14.7893 76.5633 15.344C76.2513 15.8987 76.0953 16.488 76.0953 17.112C76.0953 17.424 76.13 17.684 76.1993 17.892C76.2686 18.1 76.3466 18.1953 76.4333 18.178Z" fill="#292929"/>
</svg>
