<svg width="761" height="97" viewBox="0 0 761 97" fill="none" xmlns="http://www.w3.org/2000/svg">
<g clip-path="url(#clip0_864_2143)">
<rect width="762" height="97" rx="12" fill="#F9FAFC"/>
<rect x="696.846" y="30.8244" width="82.2971" height="45.5605" transform="rotate(1.83988 696.846 30.8244)" fill="#0092B7" stroke="black"/>
<rect x="583.188" y="11.728" width="154.202" height="45.5605" rx="22.7802" transform="rotate(-9.01198 583.188 11.728)" fill="#FFE101" stroke="black"/>
<path d="M721.054 59.8039L721.462 47.0839L723.395 47.146L723.218 52.6627L729.543 52.8659L729.72 47.3492L731.653 47.4113L731.244 60.1313L729.311 60.0692L729.49 54.5174L723.165 54.3142L722.986 59.866L721.054 59.8039ZM737.721 60.5328C735.015 60.4459 733.313 58.4214 733.416 55.4701C733.503 52.5006 735.332 50.5896 738.037 50.6765C740.725 50.7629 742.419 52.7871 742.324 55.7562C742.229 58.7078 740.409 60.6191 737.721 60.5328ZM735.296 55.5305C735.238 57.3489 736.023 58.913 737.771 58.9691C739.493 59.0245 740.368 57.5137 740.426 55.6953C740.485 53.8681 739.709 52.2867 737.988 52.2226C736.239 52.1753 735.355 53.7033 735.296 55.5305ZM745.774 60.598L743.287 50.9683L745.219 51.0304L746.857 58.0827L746.962 58.0861L749.049 51.1534L750.982 51.2155L752.603 58.2321L752.708 58.2355L754.777 51.3374L756.709 51.3995L753.609 60.8497L751.694 60.7882L749.982 53.8566L749.842 53.8521L747.706 60.6601L745.774 60.598Z" fill="white"/>
<rect x="528.76" y="22.5816" width="106.869" height="45.5605" rx="22.7802" transform="rotate(10.3402 528.76 22.5816)" fill="#F56E30" stroke="black"/>
<path d="M622.372 22.4662L622.578 23.7683L614.714 25.0156L614.507 23.7135L617.65 23.2151L617.385 21.5485L619.017 21.2896L619.282 22.9563L622.372 22.4662ZM615.872 28.3915C615.608 26.7248 616.819 25.3847 618.762 25.0677C620.751 24.7611 622.309 25.662 622.574 27.3286C622.832 28.9606 621.628 30.2906 619.641 30.6059C617.696 30.9142 616.131 30.0234 615.872 28.3915ZM617.348 28.1574C617.492 29.0689 618.341 29.5394 619.445 29.3732C620.563 29.1869 621.234 28.4755 621.081 27.5654C620.938 26.6092 620.082 26.1487 618.96 26.3177C617.859 26.5012 617.196 27.2026 617.348 28.1574ZM618.89 33.3945L618.681 32.0751L629.254 30.3982L630.047 35.3982L628.415 35.657L627.831 31.9765L618.89 33.3945ZM624.224 30.2171L622.743 20.8768L624.305 20.629L624.944 24.6567L626.698 24.3786L626.02 20.1078L627.583 19.86L629.119 29.5475L627.557 29.7953L626.912 25.7328L625.159 26.0109L625.787 29.9693L624.224 30.2171ZM642.583 17.481L643.979 26.2831L642.329 26.5447L640.933 17.7426L642.583 17.481ZM630.887 26.6686C633.188 25.4671 634.328 23.1685 633.992 20.997L633.753 19.4866L635.437 19.2195L635.676 20.7299C636.001 22.832 637.803 24.4862 640.29 24.9103L639.675 26.3071C637.775 25.9945 636.218 24.9867 635.261 23.501C634.838 25.3212 633.673 26.8942 631.91 27.8413L630.887 26.6686ZM634.791 34.45L633.885 28.7382L644.111 27.1164L645.017 32.8283L634.791 34.45ZM636.211 32.8544L643.19 31.7475L642.706 28.692L635.726 29.7988L636.211 32.8544ZM653.145 17.1941L654.296 24.4511L647.021 25.6048L645.87 18.3478L653.145 17.1941ZM648.429 24.0466L652.475 23.4051L651.742 18.787L647.697 19.4286L648.429 24.0466ZM649.821 31.9239L649.039 26.9933L650.688 26.7318L651.258 30.3255L660.13 28.9185L660.342 30.2553L649.821 31.9239ZM657.424 26.7847L655.615 15.3784L657.265 15.1169L658.003 19.7697L660.26 19.4117L660.48 20.8006L658.223 21.1585L659.074 26.5231L657.424 26.7847ZM677.354 11.9485L678.302 17.9207L680.246 17.6123L680.466 19.0012L678.522 19.3096L679.821 27.5041L678.189 27.7629L675.722 12.2073L677.354 11.9485ZM666.888 25.7465L665.236 15.3298L666.608 15.1123L667.225 19.0012L668.874 18.7396L668.257 14.8507L669.629 14.6332L671.281 25.0499L666.888 25.7465ZM668.042 24.1574L669.692 23.8959L669.083 20.059L667.434 20.3206L668.042 24.1574ZM672.045 24.9287L670.393 14.512L671.764 14.2945L672.381 18.1834L673.995 17.9273L673.379 14.0384L674.75 13.8209L676.402 24.2376L672.045 24.9287ZM673.199 23.3397L674.813 23.0836L674.205 19.2468L672.59 19.5028L673.199 23.3397ZM696.3 21.5445L696.515 22.8987L682.279 25.1565L682.064 23.8024L696.3 21.5445ZM682.21 13.7235L681.998 12.3867L692.796 10.674L693.567 15.5352L684.435 16.9835L684.796 19.2578L694.293 17.7516L694.502 19.0711L683.374 20.836L682.592 15.9055L691.723 14.4572L691.377 12.2697L682.21 13.7235ZM708.847 6.95372L711.315 22.5093L709.752 22.7571L707.285 7.20153L708.847 6.95372ZM697.181 20.1412C700.169 17.6562 701.334 14.7928 701.113 11.5442L696.677 12.2478L696.462 10.8936L702.538 9.92987C702.771 11.4503 702.792 12.933 702.53 14.3629L704.995 13.9719L704.067 8.12124L705.629 7.87343L707.912 22.2658L706.35 22.5136L705.204 15.2914L702.166 15.7732C701.532 17.7247 700.298 19.54 698.306 21.1731L697.181 20.1412Z" fill="black"/>
<path d="M557.829 56.3761L556.638 43.222L558.644 43.588L559.315 53.7168L559.419 53.7357L563.728 44.5156L565.699 44.8753L566.474 55.023L566.578 55.0419L570.783 45.8029L572.789 46.1689L567.029 58.0546L565.11 57.7044L564.188 47.8695L564.084 47.8506L559.749 56.7263L557.829 56.3761ZM574.772 53.7137L573.756 59.282L571.906 58.9444L574.19 46.4245L576.006 46.7558L575.154 51.4248L575.275 51.4469C575.902 50.5071 576.901 50.0282 578.362 50.2948C580.29 50.6466 581.361 52.0748 580.932 54.4266L579.843 60.3926L577.993 60.055L579.04 54.3138C579.293 52.9304 578.694 51.9993 577.449 51.7721C576.143 51.5339 575.045 52.2179 574.772 53.7137ZM582.124 58.0749C582.507 55.9291 584.432 55.7086 586.149 55.8967C586.778 55.9757 588.201 56.1551 588.637 56.2166L588.765 55.4628C588.968 54.4009 588.423 53.6671 587.169 53.4384C586.08 53.2396 585.331 53.6212 585.015 54.2782L583.182 53.9438C583.63 52.4174 585.288 51.5584 587.51 51.9638C589.006 52.2368 591.085 53.179 590.597 55.9042L589.458 62.1468L587.659 61.8187L587.893 60.539L587.824 60.5264C587.333 61.1605 586.324 61.7896 584.768 61.5056C582.987 61.1806 581.781 59.9064 582.124 58.0749ZM583.919 58.4204C583.755 59.3196 584.415 59.9135 585.451 60.1115C586.957 60.3773 588.04 59.5384 588.243 58.423L588.391 57.5655C587.962 57.5141 586.605 57.3647 586.159 57.3102C584.933 57.1758 584.088 57.4952 583.919 58.4204ZM597.794 53.9653L597.526 55.4352L595.606 55.085L594.666 60.2382C594.481 61.3033 594.965 61.5882 595.56 61.7057C595.828 61.7546 596.239 61.8028 596.503 61.8242L596.21 63.4324C595.953 63.4212 595.549 63.3832 595.038 63.2901C593.595 63.0267 592.434 61.993 592.764 60.2842L593.773 54.7506L592.39 54.4981L592.658 53.0283L594.042 53.2807L594.452 51.0326L596.285 51.3671L595.875 53.6151L597.794 53.9653Z" fill="white"/>
<path d="M691.742 55.3755L715.466 75.2854L695.341 98.77L625.276 104.645L601.552 84.735L621.677 61.2505L691.742 55.3755Z" fill="#7A4EC7" stroke="black"/>
<path d="M644.531 87.948L639.852 75.5966L641.883 75.4107L645.249 84.9874L645.354 84.9778L647.029 74.9394L649.025 74.7567L652.496 84.3238L652.601 84.3142L654.171 74.2854L656.202 74.0994L653.844 87.0952L651.901 87.2731L648.373 78.0466L648.268 78.0562L646.474 87.77L644.531 87.948ZM660.137 80.835L660.653 86.4716L658.78 86.6431L657.62 73.9696L659.458 73.8013L659.89 78.5276L660.013 78.5164C660.365 77.4427 661.198 76.7133 662.677 76.5778C664.629 76.3991 666.044 77.4875 666.262 79.8682L666.815 85.9074L664.942 86.0789L664.41 80.2673C664.281 78.8669 663.455 78.1306 662.195 78.246C660.873 78.367 659.998 79.3209 660.137 80.835ZM670.205 89.1978C669.819 89.2243 669.442 89.2501 669.203 89.2367L669.06 87.6788C669.272 87.677 669.64 87.6521 669.903 87.6368C670.48 87.5752 670.959 87.4961 671.295 86.2561L671.465 85.6051L667.1 76.2964L669.095 76.1137L672.168 83.2636L672.273 83.254L673.997 75.6648L676.01 75.4805L673.075 86.6051C672.661 88.161 671.771 89.0456 670.205 89.1978Z" fill="white"/>
<path d="M37.1367 26.1602V43.6992H35.2812V26.1602H37.1367ZM23.25 33.6016C23.25 29.8613 25.1348 27.4785 27.7812 27.4688C30.3789 27.4785 32.293 29.8613 32.293 33.6016C32.293 37.3809 30.3789 39.7637 27.7812 39.7539C25.1348 39.7637 23.25 37.3809 23.25 33.6016ZM25.0469 33.6016C25.0371 36.3848 26.1504 38.0938 27.7812 38.0938C29.3828 38.0938 30.4961 36.3848 30.4961 33.6016C30.4961 30.8574 29.3828 29.1387 27.7812 29.1289C26.1504 29.1387 25.0371 30.8574 25.0469 33.6016ZM54.9492 26.1602V43.6602H53.1719V26.1602H54.9492ZM39.6758 38.8359C42.1562 37.3418 43.416 34.1582 43.4258 31.043V29.6367H40.2031V28.1328H48.2109V29.6367H45.2031V31.043C45.2031 34.0312 46.4141 37.0293 48.875 38.4453L47.7617 39.8125C46.0918 38.8164 44.9492 37.0293 44.334 34.9199C43.709 37.2051 42.5176 39.1582 40.8086 40.2227L39.6758 38.8359ZM46.9219 33.875V32.3516H49.6367V26.5312H51.3945V42.7812H49.6367V33.875H46.9219ZM67.4297 30.9453C67.4297 33.7383 68.6016 36.7168 70.9453 38.1523L69.9102 39.5781C68.2695 38.5918 67.166 36.8438 66.5605 34.8223C65.9258 37.0391 64.7148 38.9336 63.0156 39.9688L61.8633 38.582C64.334 37.0977 65.6426 34.002 65.6328 31.0234V27.7617H67.4297V30.9453ZM69.0508 33.8555V32.3125H71.7656V26.4922H73.5234V42.8008H71.7656V33.8555H69.0508ZM75.3789 43.6602V26.1602H77.1562V43.6602H75.3789ZM95.3398 33.3477V34.832H88.2695V36.3945H93.3281V40.5352H83.1328V42.0586H93.8164V43.4844H81.3164V39.207H91.4922V37.7812H81.2969V36.3945H86.4336V34.832H79.3828V33.3477H95.3398ZM80.2031 31.2188C83.3672 30.9551 85.8477 29.7344 86.2285 28.1914H80.8477V26.7266H93.9141V28.1914H88.4746C88.8457 29.7246 91.3555 30.9551 94.5391 31.2188L93.9336 32.625C90.9258 32.3418 88.4062 31.2578 87.3516 29.5977C86.2969 31.2578 83.7969 32.3418 80.7891 32.625L80.2031 31.2188ZM116.141 26.1797V36.5312H114.285V34.4023H109.871V32.8789H114.285V30.75H110.057C108.924 33.5625 106.297 35.5449 102.508 36.6289L101.766 35.1836C105.906 34.002 108.328 31.7754 108.66 28.9531H102.664V27.4297H110.672C110.672 28.0742 110.604 28.6992 110.486 29.2852H114.285V26.1797H116.141ZM104.48 40.1445C104.48 38.0254 106.785 36.7363 110.379 36.7266C113.924 36.7363 116.248 38.0254 116.258 40.1445C116.248 42.2734 113.924 43.582 110.379 43.582C106.785 43.582 104.48 42.2734 104.48 40.1445ZM106.316 40.1445C106.316 41.375 107.879 42.0879 110.379 42.0977C112.83 42.0879 114.393 41.375 114.402 40.1445C114.393 38.8945 112.83 38.1816 110.379 38.1914C107.879 38.1816 106.316 38.8945 106.316 40.1445ZM133.855 26.1602V43.6602H132.078V26.1602H133.855ZM118.582 38.8359C121.062 37.3418 122.322 34.1582 122.332 31.043V29.6367H119.109V28.1328H127.117V29.6367H124.109V31.043C124.109 34.0312 125.32 37.0293 127.781 38.4453L126.668 39.8125C124.998 38.8164 123.855 37.0293 123.24 34.9199C122.615 37.2051 121.424 39.1582 119.715 40.2227L118.582 38.8359ZM125.828 33.875V32.3516H128.543V26.5312H130.301V42.7812H128.543V33.875H125.828ZM147.312 30.6133C147.312 33.8164 149.109 37.0098 151.785 38.2109L150.652 39.6953C148.67 38.6992 147.166 36.7266 146.395 34.334C145.623 36.8535 144.1 38.9824 142.078 40.0273L140.906 38.5234C143.621 37.2246 145.428 33.8555 145.438 30.6133V27.625H147.312V30.6133ZM149.852 33.4844V31.9805H153.758V26.1602H155.594V43.6992H153.758V33.4844H149.852ZM172.781 26.1602V43.6992H170.926V26.1602H172.781ZM159.266 39.5V27.625H161.121V32.1172H165.828V27.625H167.664V39.5H159.266ZM161.121 37.9766H165.828V33.582H161.121V37.9766ZM184.461 28.6406C184.461 31.4922 187.498 34.1875 190.867 34.793L190.008 36.3359C187.205 35.7305 184.637 33.8945 183.504 31.4336C182.352 33.8848 179.783 35.7109 176.98 36.3359L176.16 34.793C179.48 34.168 182.498 31.4922 182.508 28.6406V27.3125H184.461V28.6406ZM175.574 41.3555V39.8125H191.59V41.3555H175.574ZM211.492 26.1406V31.375H214.031V32.9375H211.492V39.0117H209.637V26.1406H211.492ZM198.016 31.707C197.996 29.1582 200.027 27.3613 202.664 27.3516C205.311 27.3613 207.312 29.1582 207.332 31.707C207.312 34.2559 205.311 36.0723 202.664 36.0625C200.027 36.0723 197.996 34.2559 198.016 31.707ZM199.832 31.707C199.812 33.3379 201.062 34.4414 202.664 34.4414C204.285 34.4414 205.506 33.3379 205.516 31.707C205.506 30.0762 204.285 28.9727 202.664 28.9727C201.062 28.9727 199.812 30.0762 199.832 31.707ZM200.398 43.2891V37.6641H202.254V41.7852H212.234V43.2891H200.398ZM230.086 26.1602V43.6602H228.309V26.1602H230.086ZM215.223 33.7188C215.223 29.9297 216.707 27.5566 218.992 27.5664C221.121 27.5566 222.557 29.5781 222.771 32.8594H224.754V26.4922H226.531V42.8008H224.754V34.3633H222.781C222.615 37.7812 221.16 39.9004 218.992 39.8906C216.707 39.9004 215.223 37.5176 215.223 33.7188ZM216.941 33.7188C216.941 36.502 217.732 38.1426 218.992 38.1328C220.281 38.1426 221.082 36.502 221.082 33.7188C221.082 30.9258 220.281 29.2949 218.992 29.3047C217.732 29.2949 216.941 30.9258 216.941 33.7188ZM238.621 30.6133C238.621 33.8164 240.418 37.0098 243.094 38.2109L241.961 39.6953C239.979 38.6992 238.475 36.7266 237.703 34.334C236.932 36.8535 235.408 38.9824 233.387 40.0273L232.215 38.5234C234.93 37.2246 236.736 33.8555 236.746 30.6133V27.625H238.621V30.6133ZM241.16 33.4844V31.9805H245.066V26.1602H246.902V43.6992H245.066V33.4844H241.16ZM37.2344 54.1797V64.5312H35.3789V62.4023H30.9648V60.8789H35.3789V58.75H31.1504C30.0176 61.5625 27.3906 63.5449 23.6016 64.6289L22.8594 63.1836C27 62.002 29.4219 59.7754 29.7539 56.9531H23.7578V55.4297H31.7656C31.7656 56.0742 31.6973 56.6992 31.5801 57.2852H35.3789V54.1797H37.2344ZM25.5742 68.1445C25.5742 66.0254 27.8789 64.7363 31.4727 64.7266C35.0176 64.7363 37.3418 66.0254 37.3516 68.1445C37.3418 70.2734 35.0176 71.582 31.4727 71.582C27.8789 71.582 25.5742 70.2734 25.5742 68.1445ZM27.4102 68.1445C27.4102 69.375 28.9727 70.0879 31.4727 70.0977C33.9238 70.0879 35.4863 69.375 35.4961 68.1445C35.4863 66.8945 33.9238 66.1816 31.4727 66.1914C28.9727 66.1816 27.4102 66.8945 27.4102 68.1445ZM54.9492 54.1602V71.6602H53.1719V54.1602H54.9492ZM39.6758 66.8359C42.1562 65.3418 43.416 62.1582 43.4258 59.043V57.6367H40.2031V56.1328H48.2109V57.6367H45.2031V59.043C45.2031 62.0312 46.4141 65.0293 48.875 66.4453L47.7617 67.8125C46.0918 66.8164 44.9492 65.0293 44.334 62.9199C43.709 65.2051 42.5176 67.1582 40.8086 68.2227L39.6758 66.8359ZM46.9219 61.875V60.3516H49.6367V54.5312H51.3945V70.7812H49.6367V61.875H46.9219ZM76.6094 54.1797V66.9922H74.7539V54.1797H76.6094ZM62.1953 63.0469C64.9395 62.0312 66.5605 59.5117 66.5703 56.875V55.1367H68.4648V56.875C68.4551 59.4336 70.0762 61.7773 72.7812 62.7148L71.8242 64.1992C69.8027 63.4473 68.3086 61.9629 67.5273 60.0684C66.7559 62.0996 65.2422 63.7207 63.1914 64.5117L62.1953 63.0469ZM65.1641 71.2891V65.7812H67.0391V69.7852H77.1367V71.2891H65.1641ZM95.3789 63.0078V64.5117H88.4258V67.9102H86.5898V64.5117H79.3633V63.0078H95.3789ZM81.3555 71.2891V66.25H83.2109V69.7852H93.6016V71.2891H81.3555ZM81.4141 61.1914V54.9805H93.3086V61.1914H81.4141ZM83.2305 59.7266H91.4727V56.4453H83.2305V59.7266ZM110.438 56.6406C110.438 59.4922 113.475 62.1875 116.844 62.793L115.984 64.3359C113.182 63.7305 110.613 61.8945 109.48 59.4336C108.328 61.8848 105.76 63.7109 102.957 64.3359L102.137 62.793C105.457 62.168 108.475 59.4922 108.484 56.6406V55.3125H110.438V56.6406ZM101.551 69.3555V67.8125H117.566V69.3555H101.551ZM132.918 55.8594V57.9883C132.918 60.5469 132.918 62.9492 132.156 66.582L130.32 66.4062C130.691 64.7949 130.887 63.3984 130.984 62.0996L120.477 62.6562L120.242 61.1328L131.072 60.7227C131.111 59.7852 131.111 58.8867 131.121 57.9883V57.3828H120.73V55.8594H132.918ZM118.836 69.3164V67.793H134.793V69.3164H118.836ZM151.043 54.1797V63.8672H149.285V59.7266H147.137V63.7109H145.398V54.4727H147.137V58.2422H149.285V54.1797H151.043ZM136.863 56.6406V55.1562H143.504V59.8242H138.699V61.8164C140.867 61.7969 142.518 61.709 144.441 61.3281L144.637 62.8125C142.43 63.2324 140.613 63.3105 138.055 63.3203H136.902V58.4375H141.727V56.6406H136.863ZM139.363 71.4453V64.6484H141.199V66.4648H149.227V64.6484H151.043V71.4453H139.363ZM141.199 69.9414H149.227V67.9492H141.199V69.9414ZM161.375 54.4531C165.32 54.4434 167.615 55.5078 167.625 57.4609C167.615 59.4238 165.32 60.4883 161.375 60.4883C157.43 60.4883 155.115 59.4238 155.125 57.4609C155.115 55.5078 157.43 54.4434 161.375 54.4531ZM153.406 63.0469V61.5625H169.363V63.0469H153.406ZM155.32 65.7812V64.3945H167.352V68.4961H157.156V70.0586H167.84V71.4844H155.34V67.1484H165.516V65.7812H155.32ZM157.059 57.4609C157.049 58.5449 158.592 59.1016 161.375 59.1016C164.178 59.1016 165.721 58.5449 165.711 57.4609C165.721 56.4258 164.178 55.8203 161.375 55.8203C158.592 55.8203 157.049 56.4258 157.059 57.4609ZM189.207 54.1602V61.25H192.02V62.793H189.207V71.6602H187.371V54.1602H189.207ZM175.477 58.418V56.8945H179.793V54.3945H181.648V56.8945H185.848V58.418H175.477ZM176.375 63.7695C176.375 61.3867 178.211 59.707 180.73 59.707C183.24 59.707 185.076 61.3867 185.086 63.7695C185.076 66.1719 183.24 67.8418 180.73 67.8516C178.211 67.8418 176.375 66.1719 176.375 63.7695ZM178.152 63.7695C178.143 65.293 179.236 66.3086 180.73 66.2891C182.215 66.3086 183.299 65.293 183.309 63.7695C183.299 62.2754 182.215 61.2402 180.73 61.2305C179.236 61.2402 178.143 62.2754 178.152 63.7695ZM207.02 55.8398V57.5586C207.01 59.7168 207.01 62.1387 206.355 65.7227L204.48 65.5273C205.154 62.1387 205.154 59.6582 205.164 57.5586V57.3438H194.539V55.8398H207.02ZM192.859 69.2969V67.7539H198.934V61.582H200.77V67.7539H208.816V69.2969H192.859ZM213.289 68.6523L211.727 74.043H210.066L211.102 68.6523H213.289ZM234.754 54.1602V71.6992H232.898V61.9727H229.285V60.4492H232.898V54.1602H234.754ZM219.949 66.8164C222.625 65.5371 224.51 62.2266 224.52 59.082V57.4414H220.652V55.918H230.281V57.4414H226.395V59.082C226.395 62.041 228.26 65.2344 230.945 66.4258L229.832 67.9102C227.811 66.9336 226.258 64.8926 225.477 62.5098C224.695 65.0488 223.104 67.2266 221.082 68.2617L219.949 66.8164ZM243.543 57.3828C243.533 59.6094 245.086 61.6406 247.742 62.4805L246.863 63.9258C244.871 63.291 243.416 61.9727 242.645 60.3125C241.883 62.2266 240.35 63.7402 238.25 64.4727L237.293 62.9883C240.027 62.0898 241.678 59.834 241.688 57.4023V56.9141H237.84V55.4102H247.312V56.9141H243.543V57.3828ZM239.656 68.3398C239.656 66.2891 241.893 65.0879 245.535 65.0977C249.139 65.0879 251.336 66.2891 251.336 68.3398C251.336 70.4199 249.139 71.6309 245.535 71.6211C241.893 71.6309 239.656 70.4199 239.656 68.3398ZM241.512 68.3398C241.502 69.5117 243.006 70.166 245.535 70.1562C248.045 70.166 249.529 69.5117 249.52 68.3398C249.529 67.1973 248.045 66.5527 245.535 66.5625C243.006 66.5527 241.502 67.1973 241.512 68.3398ZM249.324 64.668V54.1602H251.18V58.4961H253.719V60.0195H251.18V64.668H249.324ZM263.367 57.0508V58.5547H254.676V57.0508H258.113V54.668H259.949V57.0508H263.367ZM255.242 63.6328C255.232 61.2793 256.834 59.6094 259.031 59.6094C261.248 59.6094 262.83 61.2793 262.84 63.6328C262.83 66.0254 261.248 67.7051 259.031 67.6953C256.834 67.7051 255.232 66.0254 255.242 63.6328ZM256.883 63.6328C256.873 65.1172 257.771 66.1133 259.031 66.1133C260.291 66.1133 261.199 65.1172 261.199 63.6328C261.199 62.1777 260.291 61.1621 259.031 61.1523C257.771 61.1621 256.873 62.1777 256.883 63.6328ZM264.168 70.8398V54.5508H265.926V61.4453H267.938V54.1602H269.695V71.6602H267.938V62.9688H265.926V70.8398H264.168ZM280.809 54.4336V55.957H288.914V54.4336H290.77V60.2344H285.73V61.7578H292.84V63.2422H276.883V61.7578H283.914V60.2344H278.973V54.4336H280.809ZM278.797 65.8984V64.5117H290.828V68.5938H280.633V70.0586H291.316V71.4844H278.816V67.2656H288.992V65.8984H278.797ZM280.809 58.8281H288.914V57.3242H280.809V58.8281ZM308.016 55.7031C308.006 58.0273 310.848 60.2051 314.285 60.6641L313.562 62.1875C310.701 61.7285 308.191 60.2441 307.049 58.1836C305.906 60.2441 303.396 61.7285 300.555 62.1875L299.812 60.6641C303.24 60.2051 306.072 58.0566 306.082 55.7031V54.7461H308.016V55.7031ZM299.051 65.4297V63.9062H315.008V65.4297H307.898V71.6602H306.082V65.4297H299.051ZM327.293 65.7227C327.293 67.2266 328.035 68.8184 329.627 69.7656C331.229 68.7402 332.02 67.0703 332.02 65.7227V64.8828H333.836V65.7227C333.826 67.5391 335.027 69.2969 337.312 70.0391L336.395 71.4062C334.666 70.8105 333.484 69.6387 332.879 68.2129C332.322 69.6191 331.277 70.8984 329.676 71.5625C327.996 70.9277 326.932 69.6875 326.395 68.2617C325.76 69.6387 324.607 70.8008 322.957 71.4062L322.02 70.0391C324.266 69.2383 325.486 67.4121 325.496 65.7227V64.8828H327.293V65.7227ZM321.57 59.2773C321.58 56.8262 323.553 55.1465 326.238 55.1367C328.914 55.1465 330.887 56.8262 330.887 59.2773C330.887 61.6992 328.914 63.3789 326.238 63.3789C323.553 63.3789 321.58 61.6992 321.57 59.2773ZM323.387 59.2773C323.377 60.8008 324.578 61.8359 326.238 61.8359C327.879 61.8359 329.07 60.8008 329.07 59.2773C329.07 57.7441 327.879 56.709 326.238 56.7188C324.578 56.709 323.377 57.7441 323.387 59.2773ZM333.875 64.1406V54.1797H335.73V64.1406H333.875ZM343.25 55.4688C345.633 55.4785 347.361 57.4902 347.645 60.7227H351.258V54.1602H353.094V71.6992H351.258V62.2266H347.664C347.459 65.6445 345.691 67.7637 343.25 67.7539C340.643 67.7637 338.797 65.3809 338.816 61.6016C338.797 57.8613 340.643 55.4785 343.25 55.4688ZM340.574 61.6016C340.584 64.3848 341.668 66.0938 343.25 66.0938C344.832 66.0938 345.916 64.3848 345.926 61.6016C345.916 58.8574 344.832 57.1387 343.25 57.1289C341.668 57.1387 340.584 58.8574 340.574 61.6016ZM371.805 67.9297V69.4727H355.789V67.9297H359.617V63.3594C358.182 62.5684 357.303 61.3184 357.312 59.7461C357.303 56.9922 360.008 55.1855 363.758 55.1758C367.518 55.1855 370.223 56.9922 370.223 59.7461C370.223 61.2891 369.383 62.5293 367.977 63.3203V67.9297H371.805ZM359.109 59.7461C359.109 61.6211 361.014 62.8418 363.758 62.8516C366.482 62.8418 368.416 61.6211 368.426 59.7461C368.416 57.8613 366.482 56.6602 363.758 56.6602C361.014 56.6602 359.109 57.8613 359.109 59.7461ZM361.453 67.9297H366.102V64.043C365.389 64.209 364.598 64.2969 363.758 64.2969C362.938 64.2969 362.156 64.209 361.453 64.043V67.9297ZM376.297 55.8594L376.121 65.918H374.188L374.012 55.8594H376.297ZM373.777 68.75C373.768 67.9883 374.402 67.3633 375.164 67.3633C375.916 67.3633 376.541 67.9883 376.551 68.75C376.541 69.5117 375.916 70.127 375.164 70.1367C374.402 70.127 373.768 69.5117 373.777 68.75Z" fill="black"/>
</g>
<defs>
<clipPath id="clip0_864_2143">
<rect width="761" height="97" fill="white"/>
</clipPath>
</defs>
</svg>
