<svg width="24" height="25" viewBox="0 0 24 25" fill="none" xmlns="http://www.w3.org/2000/svg">
<path d="M11.3104 17.04L7.58037 13.32C7.42221 13.1624 7.33331 12.9483 7.33331 12.725C7.33331 12.5017 7.42221 12.2876 7.58037 12.13C7.913 11.8113 8.43773 11.8113 8.77037 12.13L11.0604 14.43V4.34C11.0604 3.87608 11.4364 3.5 11.9004 3.5C12.3643 3.5 12.7404 3.87608 12.7404 4.34V14.43L15.0304 12.13C15.363 11.8113 15.8877 11.8113 16.2204 12.13C16.3785 12.2876 16.4674 12.5017 16.4674 12.725C16.4674 12.9483 16.3785 13.1624 16.2204 13.32L12.4904 17.04C12.3364 17.2009 12.123 17.2913 11.9004 17.29C11.6772 17.2937 11.4629 17.2029 11.3104 17.04Z" fill="#292929"/>
<path d="M17.1204 8.92H18.3304C20.8466 8.97468 22.845 11.0536 22.8004 13.57V17.38C22.845 19.8964 20.8466 21.9753 18.3304 22.03L5.47038 21.95C2.95413 21.8953 0.955723 19.8164 1.00037 17.3V13.49C0.970866 12.2762 1.42562 11.1005 2.26425 10.2225C3.10289 9.34442 4.25647 8.83621 5.47038 8.81H6.68038C7.14429 8.81 7.52037 9.18608 7.52037 9.65C7.52037 10.1139 7.14429 10.49 6.68038 10.49H5.47038C4.70103 10.5134 3.97305 10.8437 3.44888 11.4074C2.9247 11.971 2.64795 12.721 2.68037 13.49V17.27C2.64795 18.039 2.9247 18.789 3.44888 19.3526C3.97305 19.9163 4.70103 20.2466 5.47038 20.27L18.3304 20.41C19.0997 20.3866 19.8277 20.0563 20.3519 19.4926C20.876 18.929 21.1528 18.179 21.1204 17.41V13.6C21.1528 12.831 20.876 12.081 20.3519 11.5174C19.8277 10.9537 19.0997 10.6234 18.3304 10.6H17.1204C16.6565 10.6 16.2804 10.2239 16.2804 9.76C16.2804 9.29608 16.6565 8.92 17.1204 8.92Z" fill="#292929"/>
</svg>
